<?xml version="1.0" encoding="UTF-8"?>
<svg id="_레이어_1" data-name="레이어_1" xmlns="http://www.w3.org/2000/svg" version="1.1" viewBox="0 0 1417.32 1417.32">
  <!-- Generator: Adobe Illustrator 30.0.0, SVG Export Plug-In . SVG Version: 2.1.1 Build 123)  -->
  <defs>
    <style>
      .st0 {
        fill: #12284d;
      }
    </style>
  </defs>
  <g>
    <path class="st0" d="M535.52,768.15c8.67-1.2,15.94-2.89,21.8-5.08v40.3c-5.67,2.37-13.25,4.22-22.76,5.48-9.51,1.29-18.73,1.93-27.69,1.93h-45.78v-197.41h87.46v40.86h-44.96v115.68h7.13c7.85,0,16.12-.58,24.81-1.77ZM659.3,819.82h-41.68v-91.02h-11.79v87.47h-40.85v-206.18h40.85v74.3h11.79v-75.12h41.68v210.56Z"/>
    <path class="st0" d="M752.65,768.15c8.67-1.2,15.94-2.89,21.8-5.08v40.3c-5.67,2.37-13.25,4.22-22.76,5.48-9.51,1.29-18.73,1.93-27.69,1.93h-45.78v-197.41h87.46v40.86h-44.96v115.68h7.13c7.85,0,16.12-.58,24.81-1.77ZM876.43,819.82h-41.68v-91.02h-11.79v87.47h-40.85v-206.18h40.85v74.3h11.79v-75.12h41.68v210.56Z"/>
    <path class="st0" d="M1095.48,750.46h-203.15v-38.39h79.23v-26.3h44.69v26.3h79.24v38.39ZM950.86,690.57c-16.37,6.31-34.05,9.64-53.05,10v-39.76c12.79-.54,24.95-3.23,36.47-8.07,11.51-4.86,21.14-11.57,28.92-20.16,7.77-8.59,12.66-18.45,14.67-29.62l44.97,7.69c-1.65,8.96-4.03,16.55-7.13,22.75l80.33,32.35-16.73,35.92-86.08-37.29c-11.89,11.14-26,19.88-42.36,26.18ZM1086.7,781.45v39.2h-183.41v-62.77h45.51v23.57h137.9Z"/>
    <path class="st0" d="M1312.61,750.46h-203.15v-38.39h79.23v-26.3h44.69v26.3h79.24v38.39ZM1167.99,690.57c-16.37,6.31-34.05,9.64-53.05,10v-39.76c12.79-.54,24.95-3.23,36.47-8.07,11.51-4.86,21.14-11.57,28.92-20.16,7.77-8.59,12.66-18.45,14.67-29.62l44.97,7.69c-1.65,8.96-4.03,16.55-7.13,22.75l80.33,32.35-16.73,35.92-86.08-37.29c-11.89,11.14-26,19.88-42.36,26.18ZM1303.83,781.45v39.2h-183.41v-62.77h45.51v23.57h137.9Z"/>
  </g>
  <g>
    <path class="st0" d="M138.44,804.56l-34.28-122.86,90.9,62.8,62.27-62.74,62.74,62.61,90.21-62.66c-9.79,40.75-22.09,80.89-33.46,121.23v39.59h-239.19c-.22-.6.82-.98.82-1.22v-36.74Z"/>
    <polygon class="st0" points="378.44 603.36 368.05 696.19 322.16 728.72 257.93 665.43 193.54 729.83 146.76 695.82 136 603.36 195.18 646.61 257.22 574.8 318.55 645.77 378.44 603.36"/>
  </g>
</svg>