<?xml version="1.0" encoding="UTF-8"?>
<svg id="_레이어_1" data-name="레이어_1" xmlns="http://www.w3.org/2000/svg" version="1.1" viewBox="0 0 1417.32 1417.32">
  <!-- Generator: Adobe Illustrator 30.0.0, SVG Export Plug-In . SVG Version: 2.1.1 Build 123)  -->
  <defs>
    <style>
      .st0 {
        fill: #35469C;
      }
    </style>
  </defs>
  <g>
    <path class="st0" d="M493.74,818.31l-62.02-222.3,164.48,113.63,112.67-113.53,113.51,113.28,163.22-113.38c-17.71,73.74-39.98,146.37-60.55,219.35v71.64h-431.29c-.39-1.08-.02-1.77-.02-2.22v-66.47Z"/>
    <polygon class="st0" points="928 454.27 909.19 622.23 826.16 681.1 709.94 566.57 593.45 683.09 508.8 621.57 489.33 454.27 596.41 532.53 708.66 402.6 819.63 531 928 454.27"/>
  </g>
  <g>
    <path class="st0" d="M527.64,987.69c4.47-.6,8.21-1.47,11.22-2.6v20.74c-2.91,1.22-6.82,2.17-11.71,2.82-4.9.67-9.66,1-14.27,1h-23.56v-101.62h45.02v21.01h-23.15v59.57h3.67c4.04,0,8.3-.3,12.77-.92ZM591.37,1014.3h-21.45v-46.85h-6.07v45.02h-21.03v-106.14h21.03v38.25h6.07v-38.68h21.45v108.39Z"/>
    <path class="st0" d="M639.43,987.69c4.47-.6,8.21-1.47,11.22-2.6v20.74c-2.91,1.22-6.82,2.17-11.71,2.82-4.9.67-9.66,1-14.27,1h-23.56v-101.62h45.02v21.01h-23.15v59.57h3.67c4.04,0,8.3-.3,12.77-.92ZM703.16,1014.3h-21.45v-46.85h-6.07v45.02h-21.03v-106.14h21.03v38.25h6.07v-38.68h21.45v108.39Z"/>
    <path class="st0" d="M815.92,978.6h-104.59v-19.76h40.8v-13.54h23v13.54h40.79v19.76ZM741.47,947.76c-8.43,3.25-17.53,4.97-27.32,5.15v-20.46c6.6-.27,12.86-1.67,18.78-4.17,5.93-2.47,10.89-5.95,14.89-10.37,4-4.42,6.51-9.49,7.55-15.24l23.15,3.95c-.85,4.62-2.07,8.52-3.67,11.72l41.36,16.67-8.61,18.49-44.33-19.21c-6.12,5.75-13.38,10.24-21.8,13.49ZM811.41,994.54v20.19h-94.43v-32.31h23.44v12.12h71Z"/>
    <path class="st0" d="M927.71,978.6h-104.59v-19.76h40.8v-13.54h23v13.54h40.79v19.76ZM853.26,947.76c-8.43,3.25-17.53,4.97-27.32,5.15v-20.46c6.6-.27,12.86-1.67,18.78-4.17,5.93-2.47,10.89-5.95,14.89-10.37s6.51-9.49,7.55-15.24l23.15,3.95c-.85,4.62-2.07,8.52-3.67,11.72l41.36,16.67-8.61,18.49-44.33-19.21c-6.12,5.75-13.38,10.24-21.8,13.49ZM923.2,994.54v20.19h-94.43v-32.31h23.44v12.12h71Z"/>
  </g>
  <g>
    <path class="st0" d="M493.74,818.31l-62.02-222.3,164.48,113.63,112.67-113.53,113.51,113.28,163.22-113.38c-17.71,73.74-39.98,146.37-60.55,219.35v71.64h-431.29c-.39-1.08-.02-1.77-.02-2.22v-66.47Z"/>
    <polygon class="st0" points="928 454.27 909.19 622.23 826.16 681.1 709.94 566.57 593.45 683.09 508.8 621.57 489.33 454.27 596.41 532.53 708.66 402.6 819.63 531 928 454.27"/>
  </g>
  <g>
    <path class="st0" d="M527.64,987.69c4.47-.6,8.21-1.47,11.22-2.6v20.74c-2.91,1.22-6.82,2.17-11.71,2.82-4.9.67-9.66,1-14.27,1h-23.56v-101.62h45.02v21.01h-23.15v59.57h3.67c4.04,0,8.3-.3,12.77-.92ZM591.37,1014.3h-21.45v-46.85h-6.07v45.02h-21.03v-106.14h21.03v38.25h6.07v-38.68h21.45v108.39Z"/>
    <path class="st0" d="M639.43,987.69c4.47-.6,8.21-1.47,11.22-2.6v20.74c-2.91,1.22-6.82,2.17-11.71,2.82-4.9.67-9.66,1-14.27,1h-23.56v-101.62h45.02v21.01h-23.15v59.57h3.67c4.04,0,8.3-.3,12.77-.92ZM703.16,1014.3h-21.45v-46.85h-6.07v45.02h-21.03v-106.14h21.03v38.25h6.07v-38.68h21.45v108.39Z"/>
    <path class="st0" d="M815.92,978.6h-104.59v-19.76h40.8v-13.54h23v13.54h40.79v19.76ZM741.47,947.76c-8.43,3.25-17.53,4.97-27.32,5.15v-20.46c6.6-.27,12.86-1.67,18.78-4.17,5.93-2.47,10.89-5.95,14.89-10.37,4-4.42,6.51-9.49,7.55-15.24l23.15,3.95c-.85,4.62-2.07,8.52-3.67,11.72l41.36,16.67-8.61,18.49-44.33-19.21c-6.12,5.75-13.38,10.24-21.8,13.49ZM811.41,994.54v20.19h-94.43v-32.31h23.44v12.12h71Z"/>
    <path class="st0" d="M927.71,978.6h-104.59v-19.76h40.8v-13.54h23v13.54h40.79v19.76ZM853.26,947.76c-8.43,3.25-17.53,4.97-27.32,5.15v-20.46c6.6-.27,12.86-1.67,18.78-4.17,5.93-2.47,10.89-5.95,14.89-10.37s6.51-9.49,7.55-15.24l23.15,3.95c-.85,4.62-2.07,8.52-3.67,11.72l41.36,16.67-8.61,18.49-44.33-19.21c-6.12,5.75-13.38,10.24-21.8,13.49ZM923.2,994.54v20.19h-94.43v-32.31h23.44v12.12h71Z"/>
  </g>
</svg>